<svg width="413" height="413" viewBox="0 0 413 413" fill="none" xmlns="http://www.w3.org/2000/svg">
<path d="M161.28 44.7999L152.32 53.7599L143.36 44.7999L134.4 53.7599L125.44 44.7999L143.36 26.8799L161.28 44.7999Z" fill="black"/>
<path d="M125.44 62.72L44.8 143.36L89.6 188.15L80.64 197.11L26.88 143.36L107.52 62.72L62.72 17.92L17.92 62.72L53.76 98.56L44.8 107.52L0 62.72L62.72 0L125.44 62.72Z" fill="black"/>
<path d="M232.95 44.7999L223.99 53.7599L206.07 35.8399L143.36 98.5599L197.11 152.32L188.15 161.28L125.44 98.5599L206.07 17.9199L232.95 44.7999Z" fill="black"/>
<path d="M116.472 179.2L71.6768 223.994L80.6357 232.953L125.431 188.159L116.472 179.2Z" fill="black"/>
<path d="M44.7999 268.79L53.7599 277.75L44.7999 286.71L26.8799 268.79L44.7999 250.87L53.7599 259.83L44.7999 268.79Z" fill="black"/>
<path d="M116.474 215.037L107.515 223.996L116.474 232.955L125.433 223.996L116.474 215.037Z" fill="black"/>
<path d="M286.71 313.59L206.07 394.22L179.19 367.34L188.15 358.39L206.07 376.3L268.79 313.59L215.03 259.83L223.99 250.87L286.71 313.59Z" fill="black"/>
<path d="M188.149 286.707L179.19 295.666L223.985 340.461L232.944 331.502L188.149 286.707Z" fill="black"/>
<path d="M197.11 331.51L143.36 385.26L62.72 304.63L17.92 349.43L62.72 394.22L98.56 358.39L107.52 367.34L62.72 412.14L0 349.43L62.72 286.71L143.36 367.34L188.15 322.55L197.11 331.51Z" fill="black"/>
<path d="M286.71 98.5599L188.15 197.11L179.19 188.15L268.79 98.5599L250.87 80.6399L259.83 71.6799L286.71 98.5599Z" fill="black"/>
<path d="M412.14 62.72L349.43 125.44L268.79 44.8L223.99 89.6L215.03 80.64L268.79 26.88L349.43 107.52L394.22 62.72L349.43 17.92L313.59 53.76L304.63 44.8L349.43 0L412.14 62.72Z" fill="black"/>
<path d="M188.148 107.517L179.189 116.476L188.148 125.435L197.107 116.476L188.148 107.517Z" fill="black"/>
<path d="M197.11 223.99L188.15 232.95L98.5597 143.36L80.6397 161.28L71.6797 152.32L98.5597 125.44L197.11 223.99Z" fill="black"/>
<path d="M161.28 223.99L98.5599 286.71L17.9199 206.07L44.7999 179.19L53.7599 188.15L35.8399 206.07L98.5599 268.79L152.32 215.03L161.28 223.99Z" fill="black"/>
<path d="M188.149 71.6787L179.19 80.6377L223.985 125.432L232.944 116.474L188.149 71.6787Z" fill="black"/>
<path d="M331.5 179.2L286.705 223.995L295.664 232.954L340.459 188.159L331.5 179.2Z" fill="black"/>
<path d="M295.661 179.199L286.702 188.158L295.661 197.117L304.62 188.158L295.661 179.199Z" fill="black"/>
<path d="M394.22 206.07L367.34 232.95L358.38 223.99L376.3 206.07L313.59 143.36L259.83 197.11L250.87 188.15L313.59 125.44L394.22 206.07Z" fill="black"/>
<path d="M385.26 143.36L367.34 161.28L358.38 152.32L367.34 143.36L358.38 134.4L367.34 125.44L385.26 143.36Z" fill="black"/>
<path d="M340.47 259.83L313.59 286.71L215.03 188.15L223.99 179.19L313.59 268.79L331.51 250.87L340.47 259.83Z" fill="black"/>
<path d="M232.95 223.99L143.36 313.59L161.28 331.51L152.32 340.47L125.44 313.59L223.99 215.03L232.95 223.99Z" fill="black"/>
<path d="M223.986 286.705L215.027 295.664L223.986 304.623L232.945 295.664L223.986 286.705Z" fill="black"/>
<path d="M331.497 215.031L322.538 223.99L367.333 268.785L376.292 259.826L331.497 215.031Z" fill="black"/>
<path d="M412.14 349.43L349.43 412.14L286.71 349.43L376.3 259.83L385.26 268.79L304.63 349.43L349.43 394.22L394.22 349.43L358.38 313.59L367.34 304.63L412.14 349.43Z" fill="black"/>
<path d="M286.71 367.34L268.79 385.26L250.87 367.34L259.83 358.39L268.79 367.34L277.75 358.39L286.71 367.34Z" fill="black"/>
</svg>
