<svg width="413" height="413" viewBox="0 0 413 413" fill="none" xmlns="http://www.w3.org/2000/svg">
<path d="M161.33 44.8199L152.36 53.7799L143.4 44.8199L134.44 53.7799L125.48 44.8199L143.4 26.8899L161.33 44.8199Z" fill="white"/>
<path d="M125.48 62.74L44.81 143.41L89.63 188.22L80.66 197.18L26.89 143.41L107.55 62.74L62.74 17.93L17.92 62.74L53.77 98.59L44.81 107.55L0 62.74L62.74 0L125.48 62.74Z" fill="white"/>
<path d="M233.03 44.8199L224.06 53.7799L206.14 35.8499L143.4 98.5899L197.18 152.37L188.21 161.33L125.48 98.5899L206.14 17.9299L233.03 44.8199Z" fill="white"/>
<path d="M116.515 179.255L71.6992 224.071L80.6652 233.037L125.481 188.221L116.515 179.255Z" fill="white"/>
<path d="M44.8096 268.88L53.7697 277.84L44.8096 286.81L26.8896 268.88L44.8096 250.96L53.7697 259.92L44.8096 268.88Z" fill="white"/>
<path d="M116.515 215.098L107.549 224.064L116.515 233.03L125.481 224.064L116.515 215.098Z" fill="white"/>
<path d="M286.8 313.69L206.14 394.36L179.25 367.47L188.21 358.51L206.14 376.43L268.88 313.69L215.1 259.92L224.06 250.96L286.8 313.69Z" fill="white"/>
<path d="M188.213 286.807L179.247 295.773L224.063 340.589L233.029 331.623L188.213 286.807Z" fill="white"/>
<path d="M197.18 331.62L143.4 385.4L62.74 304.73L17.92 349.55L62.74 394.36L98.59 358.51L107.55 367.47L62.74 412.28L0 349.55L62.74 286.81L143.4 367.47L188.21 322.66L197.18 331.62Z" fill="white"/>
<path d="M286.8 98.59L188.21 197.18L179.25 188.22L268.88 98.59L250.95 80.67L259.92 71.7L286.8 98.59Z" fill="white"/>
<path d="M412.28 62.74L349.54 125.48L268.88 44.82L224.06 89.63L215.1 80.67L268.88 26.89L349.54 107.55L394.35 62.74L349.54 17.93L313.69 53.78L304.73 44.82L349.54 0L412.28 62.74Z" fill="white"/>
<path d="M188.216 107.55L179.25 116.516L188.216 125.482L197.182 116.516L188.216 107.55Z" fill="white"/>
<path d="M197.18 224.07L188.21 233.03L98.5902 143.41L80.6602 161.33L71.7002 152.37L98.5902 125.48L197.18 224.07Z" fill="white"/>
<path d="M161.33 224.07L98.5899 286.81L17.9199 206.14L44.8099 179.26L53.7699 188.22L35.8499 206.14L98.5899 268.88L152.36 215.11L161.33 224.07Z" fill="white"/>
<path d="M188.21 71.7L179.244 80.666L224.06 125.482L233.026 116.516L188.21 71.7Z" fill="white"/>
<path d="M331.615 179.259L286.799 224.075L295.765 233.041L340.581 188.225L331.615 179.259Z" fill="white"/>
<path d="M295.765 179.251L286.799 188.218L295.765 197.184L304.731 188.218L295.765 179.251Z" fill="white"/>
<path d="M394.35 206.14L367.47 233.03L358.5 224.07L376.43 206.14L313.69 143.41L259.92 197.18L250.95 188.22L313.69 125.48L394.35 206.14Z" fill="white"/>
<path d="M385.39 143.41L367.47 161.33L358.5 152.37L367.47 143.41L358.5 134.44L367.47 125.48L385.39 143.41Z" fill="white"/>
<path d="M340.58 259.92L313.69 286.81L215.1 188.22L224.06 179.26L313.69 268.88L331.62 250.96L340.58 259.92Z" fill="white"/>
<path d="M233.03 224.07L143.4 313.69L161.33 331.62L152.36 340.58L125.48 313.69L224.06 215.11L233.03 224.07Z" fill="white"/>
<path d="M224.064 286.8L215.098 295.766L224.064 304.732L233.03 295.766L224.064 286.8Z" fill="white"/>
<path d="M331.614 215.109L322.648 224.075L367.464 268.891L376.43 259.925L331.614 215.109Z" fill="white"/>
<path d="M412.28 349.55L349.54 412.28L286.8 349.55L376.43 259.92L385.39 268.88L304.73 349.55L349.54 394.36L394.35 349.55L358.5 313.69L367.47 304.73L412.28 349.55Z" fill="white"/>
<path d="M286.8 367.47L268.88 385.4L250.95 367.47L259.92 358.51L268.88 367.47L277.84 358.51L286.8 367.47Z" fill="white"/>
</svg>
